<svg id="visual" viewBox="0 0 960 540" width="960" height="540" xmlns="http://www.w3.org/2000/svg" xmlns:xlink="http://www.w3.org/1999/xlink" version="1.1"><path d="M0 363L20 372.3C40 381.7 80 400.3 120 409.5C160 418.7 200 418.3 240 412.7C280 407 320 396 360 386.5C400 377 440 369 480 367.5C520 366 560 371 600 382.5C640 394 680 412 720 419.5C760 427 800 424 840 413.8C880 403.7 920 386.3 940 377.7L960 369L960 541L940 541C920 541 880 541 840 541C800 541 760 541 720 541C680 541 640 541 600 541C560 541 520 541 480 541C440 541 400 541 360 541C320 541 280 541 240 541C200 541 160 541 120 541C80 541 40 541 20 541L0 541Z" fill="#715df2"></path><path d="M0 420L20 422C40 424 80 428 120 430.3C160 432.7 200 433.3 240 426.2C280 419 320 404 360 395.3C400 386.7 440 384.3 480 383.2C520 382 560 382 600 392C640 402 680 422 720 431.8C760 441.7 800 441.3 840 431.8C880 422.3 920 403.7 940 394.3L960 385L960 541L940 541C920 541 880 541 840 541C800 541 760 541 720 541C680 541 640 541 600 541C560 541 520 541 480 541C440 541 400 541 360 541C320 541 280 541 240 541C200 541 160 541 120 541C80 541 40 541 20 541L0 541Z" fill="#685ff4"></path><path d="M0 430L20 432.5C40 435 80 440 120 439.8C160 439.7 200 434.3 240 427.5C280 420.7 320 412.3 360 415.3C400 418.3 440 432.7 480 434C520 435.3 560 423.7 600 423.5C640 423.3 680 434.7 720 438.7C760 442.7 800 439.3 840 436.3C880 433.3 920 430.7 940 429.3L960 428L960 541L940 541C920 541 880 541 840 541C800 541 760 541 720 541C680 541 640 541 600 541C560 541 520 541 480 541C440 541 400 541 360 541C320 541 280 541 240 541C200 541 160 541 120 541C80 541 40 541 20 541L0 541Z" fill="#5d60f7"></path><path d="M0 451L20 451.2C40 451.3 80 451.7 120 448.5C160 445.3 200 438.7 240 440.5C280 442.3 320 452.7 360 453.8C400 455 440 447 480 443.5C520 440 560 441 600 443.8C640 446.7 680 451.3 720 450.2C760 449 800 442 840 438.3C880 434.7 920 434.3 940 434.2L960 434L960 541L940 541C920 541 880 541 840 541C800 541 760 541 720 541C680 541 640 541 600 541C560 541 520 541 480 541C440 541 400 541 360 541C320 541 280 541 240 541C200 541 160 541 120 541C80 541 40 541 20 541L0 541Z" fill="#5162f9"></path><path d="M0 451L20 454.7C40 458.3 80 465.7 120 470.3C160 475 200 477 240 475.3C280 473.7 320 468.3 360 464.7C400 461 440 459 480 458C520 457 560 457 600 457.2C640 457.3 680 457.7 720 459C760 460.3 800 462.7 840 462.7C880 462.7 920 460.3 940 459.2L960 458L960 541L940 541C920 541 880 541 840 541C800 541 760 541 720 541C680 541 640 541 600 541C560 541 520 541 480 541C440 541 400 541 360 541C320 541 280 541 240 541C200 541 160 541 120 541C80 541 40 541 20 541L0 541Z" fill="#4263fb"></path><path d="M0 473L20 476C40 479 80 485 120 489.2C160 493.3 200 495.7 240 494.5C280 493.3 320 488.7 360 484.8C400 481 440 478 480 479.8C520 481.7 560 488.3 600 490C640 491.7 680 488.3 720 485.3C760 482.3 800 479.7 840 481C880 482.3 920 487.7 940 490.3L960 493L960 541L940 541C920 541 880 541 840 541C800 541 760 541 720 541C680 541 640 541 600 541C560 541 520 541 480 541C440 541 400 541 360 541C320 541 280 541 240 541C200 541 160 541 120 541C80 541 40 541 20 541L0 541Z" fill="#2e65fd"></path><path d="M0 510L20 509.5C40 509 80 508 120 507C160 506 200 505 240 504.3C280 503.7 320 503.3 360 504.7C400 506 440 509 480 508C520 507 560 502 600 502C640 502 680 507 720 507.7C760 508.3 800 504.7 840 504.3C880 504 920 507 940 508.5L960 510L960 541L940 541C920 541 880 541 840 541C800 541 760 541 720 541C680 541 640 541 600 541C560 541 520 541 480 541C440 541 400 541 360 541C320 541 280 541 240 541C200 541 160 541 120 541C80 541 40 541 20 541L0 541Z" fill="#0066ff"></path></svg>